<svg width="26" height="26" viewBox="0 0 26 26" fill="none" xmlns="http://www.w3.org/2000/svg">
<path d="M23.4029 2.4375H7.88337C7.75619 2.43739 7.63023 2.46234 7.51268 2.51091C7.39514 2.55949 7.28831 2.63074 7.1983 2.72059C7.10829 2.81045 7.03687 2.91716 6.9881 3.03462C6.93933 3.15208 6.91417 3.278 6.91406 3.40519V7.71875L15.9076 10.3594L24.3731 7.71875V3.40519C24.373 3.27794 24.3478 3.15195 24.299 3.03443C24.2501 2.91692 24.1786 2.81017 24.0885 2.72031C23.9984 2.63044 23.8915 2.5592 23.7739 2.51068C23.6562 2.46215 23.5302 2.43729 23.4029 2.4375Z" fill="#41A5EE"/>
<path d="M24.3731 7.71875H6.91406V13L15.9076 14.5844L24.3731 13V7.71875Z" fill="#2B7CD3"/>
<path d="M6.91406 13V18.2813L15.3787 19.3375L24.3731 18.2813V13H6.91406Z" fill="#185ABD"/>
<path d="M7.88337 23.5625H23.4021C23.5294 23.5628 23.6556 23.538 23.7733 23.4896C23.891 23.4411 23.9981 23.3699 24.0882 23.28C24.1784 23.1901 24.25 23.0833 24.2989 22.9658C24.3477 22.8482 24.373 22.7221 24.3731 22.5948V18.2812H6.91406V22.5948C6.91417 22.722 6.93933 22.8479 6.9881 22.9654C7.03687 23.0828 7.10829 23.1895 7.1983 23.2794C7.28831 23.3693 7.39514 23.4405 7.51268 23.4891C7.63023 23.5377 7.75619 23.5626 7.88337 23.5625Z" fill="#103F91"/>
<path opacity="0.1" d="M13.3507 6.66406H6.91406V19.8672H13.3507C13.6072 19.8659 13.8528 19.7636 14.0344 19.5825C14.216 19.4014 14.3189 19.156 14.3208 18.8995V7.63175C14.3189 7.37528 14.216 7.12989 14.0344 6.94875C13.8528 6.76762 13.6072 6.66534 13.3507 6.66406Z" fill="#262626"/>
<path opacity="0.2" d="M12.8217 7.19141H6.91406V20.3945H12.8217C13.0782 20.3933 13.3239 20.291 13.5055 20.1098C13.6871 19.9287 13.79 19.6833 13.7919 19.4268V8.15909C13.79 7.90262 13.6871 7.65723 13.5055 7.4761C13.3239 7.29497 13.0782 7.19268 12.8217 7.19141Z" fill="#262626"/>
<path opacity="0.2" d="M12.8217 7.19141H6.91406V19.3383H12.8217C13.0782 19.337 13.3239 19.2347 13.5055 19.0536C13.6871 18.8725 13.79 18.6271 13.7919 18.3706V8.15909C13.79 7.90262 13.6871 7.65723 13.5055 7.4761C13.3239 7.29497 13.0782 7.19268 12.8217 7.19141Z" fill="#262626"/>
<path opacity="0.2" d="M12.2928 7.19141H6.91406V19.3383H12.2928C12.5493 19.337 12.7949 19.2347 12.9765 19.0536C13.1581 18.8725 13.261 18.6271 13.2629 18.3706V8.15909C13.261 7.90262 13.1581 7.65723 12.9765 7.4761C12.7949 7.29497 12.5493 7.19268 12.2928 7.19141Z" fill="#262626"/>
<path d="M2.59512 7.19141H12.2947C12.5517 7.19119 12.7982 7.293 12.9801 7.47445C13.162 7.6559 13.2644 7.90216 13.2649 8.1591V17.8425C13.2644 18.0994 13.162 18.3457 12.9801 18.5271C12.7982 18.7086 12.5517 18.8104 12.2947 18.8102H2.59512C2.46787 18.8104 2.34182 18.7855 2.22418 18.737C2.10655 18.6885 1.99962 18.6172 1.90953 18.5274C1.81943 18.4375 1.74793 18.3307 1.69911 18.2132C1.65029 18.0957 1.62511 17.9697 1.625 17.8425V8.1591C1.62511 8.03184 1.65029 7.90586 1.69911 7.78834C1.74793 7.67082 1.81943 7.56408 1.90953 7.47421C1.99962 7.38434 2.10655 7.31311 2.22418 7.26459C2.34182 7.21606 2.46787 7.19119 2.59512 7.19141Z" fill="url(#paint0_linear_363_8131)"/>
<path d="M5.60812 14.6154C5.62681 14.7649 5.63981 14.8949 5.6455 15.0062H5.66825C5.67637 14.9006 5.69425 14.773 5.72106 14.6243C5.74787 14.4757 5.77144 14.3497 5.79337 14.2465L6.81306 9.85334H8.13256L9.18881 14.1807C9.25034 14.4484 9.2943 14.7198 9.32044 14.9932H9.33831C9.35772 14.7271 9.39436 14.4624 9.448 14.201L10.2922 9.84766H11.4922L10.0103 16.1429H8.60706L7.602 11.978C7.57275 11.8578 7.53971 11.7012 7.50288 11.5084C7.46604 11.3156 7.44329 11.1747 7.43462 11.0859H7.41756C7.40619 11.1883 7.38344 11.3402 7.34931 11.5417C7.31519 11.744 7.28837 11.8927 7.26806 11.9902L6.32313 16.1453H4.89638L3.40625 9.85334H4.625L5.54394 14.2555C5.57136 14.3743 5.59279 14.4944 5.60812 14.6154Z" fill="white"/>
<defs>
<linearGradient id="paint0_linear_363_8131" x1="3.65137" y1="6.43091" x2="11.2385" y2="19.5707" gradientUnits="userSpaceOnUse">
<stop stop-color="#2368C4"/>
<stop offset="0.5" stop-color="#1A5DBE"/>
<stop offset="1" stop-color="#1146AC"/>
</linearGradient>
</defs>
</svg>
