<svg width="26" height="26" viewBox="0 0 26 26" fill="none" xmlns="http://www.w3.org/2000/svg">
<g clip-path="url(#clip0_430_4342)">
<path d="M22 0H4C1.79086 0 0 1.79086 0 4V22C0 24.2091 1.79086 26 4 26H22C24.2091 26 26 24.2091 26 22V4C26 1.79086 24.2091 0 22 0Z" fill="#7C3AED"/>
<path d="M2.45978 17L3.66717 9.72727H6.53649C7.08573 9.72727 7.53672 9.83262 7.88947 10.0433C8.24458 10.2517 8.49316 10.5417 8.63521 10.9134C8.77962 11.2827 8.81277 11.7088 8.73464 12.1918C8.65415 12.6771 8.47896 13.1044 8.20907 13.4737C7.94155 13.8407 7.59354 14.1271 7.16504 14.3331C6.73654 14.5391 6.24174 14.642 5.68066 14.642H3.85183L4.05424 13.4098H5.6345C5.93279 13.4098 6.18729 13.3589 6.39799 13.2571C6.61106 13.1529 6.78033 13.0097 6.90581 12.8274C7.03128 12.6428 7.11296 12.4309 7.15083 12.1918C7.19108 11.9479 7.17806 11.736 7.11177 11.5561C7.04548 11.3762 6.92356 11.2365 6.746 11.1371C6.57082 11.0353 6.33526 10.9844 6.03933 10.9844H5.0024L3.99743 17H2.45978ZM16.2249 9.72727L15.0175 17H13.6894L11.2923 12.4226H11.2355L10.472 17H8.93439L10.1418 9.72727H11.4912L13.8776 14.3011H13.9379L14.6943 9.72727H16.2249ZM21.9271 12.0781C21.9082 11.9053 21.8679 11.7526 21.8064 11.62C21.7472 11.4851 21.6655 11.3714 21.5613 11.2791C21.4572 11.1844 21.3305 11.1122 21.1814 11.0625C21.0322 11.0128 20.8594 10.9879 20.6629 10.9879C20.2912 10.9879 19.9432 11.0803 19.6189 11.2649C19.2969 11.4496 19.0223 11.7183 18.795 12.071C18.5677 12.4214 18.4127 12.8499 18.3298 13.3565C18.2446 13.8632 18.2446 14.294 18.3298 14.6491C18.4174 15.0043 18.5819 15.2753 18.8234 15.4624C19.0673 15.647 19.3809 15.7393 19.7645 15.7393C20.1125 15.7393 20.425 15.6778 20.702 15.5547C20.979 15.4292 21.205 15.2528 21.3802 15.0256C21.5578 14.7983 21.6714 14.5296 21.7211 14.2195L22.0265 14.2656H20.1551L20.3469 13.108H23.3902L23.2339 14.0241C23.1321 14.6634 22.9084 15.2126 22.5628 15.6719C22.2171 16.1312 21.7863 16.4839 21.2702 16.7301C20.7564 16.9763 20.193 17.0994 19.5798 17.0994C18.898 17.0994 18.3239 16.9491 17.8575 16.6484C17.3935 16.3454 17.0632 15.9157 16.8667 15.3594C16.6726 14.8007 16.6383 14.1378 16.7638 13.3707C16.8608 12.7812 17.0336 12.2557 17.2822 11.794C17.5332 11.33 17.8398 10.937 18.202 10.6151C18.5642 10.2931 18.9655 10.0481 19.4058 9.87997C19.8485 9.71188 20.309 9.62784 20.7872 9.62784C21.1991 9.62784 21.572 9.68821 21.9058 9.80895C22.242 9.92732 22.5296 10.0954 22.7687 10.3132C23.0102 10.531 23.1925 10.7902 23.3156 11.0909C23.4411 11.3892 23.4991 11.7183 23.4896 12.0781H21.9271Z" fill="white"/>
</g>
<defs>
<clipPath id="clip0_430_4342">
<rect width="26" height="26" fill="white"/>
</clipPath>
</defs>
</svg>
